# Blender v2.93.4 OBJ File: 'kit.blend'
# www.blender.org
mtllib kit.mtl
o Cube
v 0.926436 0.046714 1.042865
v 0.576916 0.824897 1.264852
v -0.145383 -0.280859 -0.357751
v 0.349734 1.789593 1.017810
v 1.801949 0.174140 0.174523
v 1.510591 1.881513 -0.301656
v 1.021744 -0.319040 -0.711211
v 0.807983 0.764264 -0.760570
v 0.392516 -0.298456 -0.520652
v 0.457517 1.080793 0.147251
v 1.662978 -0.232788 0.658643
v 1.007223 1.110228 0.542888
v 0.715954 0.384680 1.260496
v -0.205559 0.714393 0.442053
v 0.947021 0.324048 -0.764926
v 1.993401 0.801789 -0.254371
v 1.303598 0.563953 0.640367
v 0.325636 0.534493 -0.114213
v 1.565983 -0.013583 0.632570
v 0.985165 0.472582 0.941251
v 1.102965 -0.047156 0.940451
v 1.238964 0.694761 0.558036
v 1.488121 0.636806 0.344818
v 1.785633 0.220227 0.112014
v 1.621829 1.296039 -0.290762
v 1.442756 1.399023 -0.187843
v 1.223039 1.165811 -0.489473
v 0.190985 1.176788 0.923242
v 0.344424 1.246835 0.815187
v 0.494292 1.253944 0.919062
v 0.388362 1.157229 1.123296
v 0.996157 0.615580 0.907340
v 1.180045 0.723704 1.059673
v 0.885531 0.803724 0.907340
v 1.069419 0.911848 1.059673
v 1.111355 0.683315 0.720202
v 1.295243 0.791439 0.872536
v 1.000729 0.871458 0.720202
v 1.184617 0.979582 0.872536
v 1.501399 0.873047 0.156350
v 1.660315 0.975867 0.296428
v 1.386649 1.050401 0.156350
v 1.545566 1.153221 0.296428
v 1.578443 0.922895 0.032354
v 1.737360 1.025715 0.172432
v 1.463693 1.100250 0.032354
v 1.622610 1.203070 0.172432
v 1.452057 0.341559 0.540534
v 1.393397 0.338051 0.898578
vt 0.625000 0.000000
vt 0.605249 0.250000
vt 0.535386 0.250000
vt 0.535386 0.365219
vt 0.625000 0.500000
vt 0.535386 0.500000
vt 0.625000 0.647684
vt 0.604353 0.750000
vt 0.535386 0.750000
vt 0.535386 0.884781
vt 0.555188 0.884781
vt 0.535386 0.947315
vt 0.375000 0.500000
vt 0.240219 0.750000
vt 0.240219 0.500000
vt 0.844163 0.500000
vt 0.759781 0.750000
vt 0.759781 0.500000
vt 0.643163 0.750000
vt 0.148535 0.750000
vt 0.125000 0.750000
vt 0.625000 0.884781
vt 0.535386 0.848885
vt 0.625000 0.365219
vt 0.625000 0.280837
vt 0.375000 0.250000
vt 0.375000 0.365219
vt 0.375000 0.750000
vt 0.418420 0.884781
vt 0.375000 0.884781
vt 0.375000 0.976465
vt 0.387380 0.750000
vt 0.375000 0.000000
vt 0.535386 0.884781
vt 0.535386 0.884781
vt 0.375000 1.000000
vt 0.625000 1.000000
vt 0.625000 0.768163
vt 0.625000 0.750000
vt 0.843714 0.567884
vt 0.875000 0.750000
vt 0.875000 0.500000
vt 0.875000 0.577849
vt 0.625000 0.250000
vt 0.625000 0.172151
vt 0.375000 0.000000
vt 0.625000 0.250000
vt 0.375000 0.250000
vt 0.625000 0.500000
vt 0.375000 0.500000
vt 0.375000 0.750000
vt 0.625000 1.000000
vt 0.375000 1.000000
vt 0.125000 0.500000
vt 0.125000 0.750000
vt 0.875000 0.750000
vt 0.625000 0.750000
vt 0.375000 0.000000
vt 0.625000 0.250000
vt 0.375000 0.250000
vt 0.375000 0.500000
vt 0.625000 0.500000
vt 0.375000 0.750000
vt 0.625000 1.000000
vt 0.375000 1.000000
vt 0.125000 0.750000
vt 0.125000 0.500000
vt 0.875000 0.750000
vt 0.625000 0.750000
vt 0.535386 0.000000
vt 0.125000 0.500000
vt 0.535386 1.000000
vt 0.625000 0.000000
vt 0.875000 0.500000
vt 0.625000 0.000000
vt 0.875000 0.500000
vn -0.7129 -0.1094 0.6927
vn -0.7400 -0.2274 -0.6330
vn 0.3775 0.2175 -0.9001
vn 0.4348 0.6237 0.6496
vn -0.0119 -0.9976 0.0684
vn 0.1083 0.9689 -0.2225
vn -0.6584 0.7463 -0.0975
vn -0.3043 -0.9030 0.3033
vn 0.6499 0.3864 0.6545
vn -0.5581 0.7782 -0.2880
vn -0.2524 0.4079 -0.8775
vn 0.7420 0.3929 0.5433
vn 0.5084 0.3200 0.7994
vn 0.5556 -0.5762 -0.5995
vn -0.2914 -0.1132 -0.9499
vn -0.6186 -0.5146 0.5937
vn 0.7959 0.2639 0.5448
vn 0.7339 0.1545 0.6614
vn 0.5890 0.6184 0.5202
vn 0.1117 0.0238 0.9935
vn 0.5460 0.1225 0.8288
vn 0.7455 0.3344 0.5765
vn 0.5453 0.1191 0.8297
vn 0.4281 0.0646 -0.9014
vn -0.8624 0.2279 0.4520
vn 0.5824 0.5751 0.5744
vn 0.5357 0.2907 -0.7928
vn 0.8515 0.1365 0.5063
vn -0.6344 0.2758 -0.7221
vn -0.7062 0.0743 0.7041
vn -0.5010 -0.2946 0.8138
vn -0.5069 0.8620 0.0000
vn 0.5010 0.2946 -0.8138
vn 0.5069 -0.8620 0.0000
vn -0.7015 -0.4125 -0.5811
vn 0.7015 0.4125 0.5811
vn -0.4995 -0.3231 0.8038
vn -0.5432 0.8396 0.0000
vn 0.4995 0.3231 -0.8038
vn 0.5432 -0.8396 0.0000
vn -0.6749 -0.4367 -0.5949
vn 0.6749 0.4367 0.5949
vn -0.6908 -0.2250 0.6872
vn -0.7955 0.4069 -0.4490
vn 0.3639 0.1798 -0.9139
vn 0.4374 0.1469 -0.8872
vn 0.7310 -0.6110 -0.3037
vn -0.4556 0.7711 -0.4447
vn -0.0799 0.9961 0.0369
vn 0.0303 -0.9782 0.2056
vn -0.1867 -0.9490 0.2540
vn 0.5935 0.4930 0.6362
vn 0.6273 0.4708 0.6203
vn 0.6796 0.4470 0.5817
vn -0.5611 0.4636 -0.6857
vn -0.5338 0.5099 -0.6746
vn 0.7889 -0.3779 -0.4845
vn 0.7240 0.0266 -0.6892
vn -0.6420 0.2940 -0.7081
vn -0.6169 -0.6602 0.4286
vn 0.7492 0.3808 0.5420
vn 0.6626 0.6749 0.3247
vn 0.5402 -0.3228 0.7772
vn 0.7565 0.0513 0.6520
vn 0.7153 0.2193 0.6636
usemtl None
s off
f 2/1/1 28/2/1 14/3/1
f 18/4/2 8/5/2 15/6/2
f 27/7/3 25/8/3 16/9/3
f 17/10/4 22/11/4 20/12/4
f 7/13/5 11/14/5 9/15/5
f 29/16/6 12/17/6 10/18/6
f 12/17/7 26/19/7 27/7/7
f 9/15/8 21/20/8 1/21/8
f 12/22/9 22/11/9 23/23/9
f 10/24/10 14/3/10 29/25/10
f 3/26/11 18/4/11 9/27/11
f 5/28/12 19/29/12 11/30/12
f 11/30/13 19/29/13 21/31/13
f 15/6/14 16/9/14 24/32/14
f 9/27/15 15/6/15 7/13/15
f 1/33/16 14/3/16 3/26/16
f 24/32/17 23/23/17 48/34/17
f 23/23/18 24/32/18 16/9/18
f 23/23/19 22/11/19 17/10/19
f 21/31/20 49/35/20 20/12/20
f 20/12/21 1/36/21 21/31/21
f 2/37/22 20/12/22 12/22/22
f 26/38/23 25/8/23 6/39/23
f 25/8/24 27/7/24 6/39/24
f 27/7/25 26/19/25 6/39/25
f 30/40/26 2/41/26 12/17/26
f 30/40/27 29/16/27 4/42/27
f 31/43/28 30/40/28 4/42/28
f 29/25/29 28/2/29 4/44/29
f 28/2/30 31/45/30 4/44/30
f 32/46/31 35/47/31 34/48/31
f 34/48/32 39/49/32 38/50/32
f 39/49/33 36/51/33 38/50/33
f 36/51/34 33/52/34 32/53/34
f 34/54/35 36/51/35 32/55/35
f 39/49/36 33/56/36 37/57/36
f 40/58/37 43/59/37 42/60/37
f 43/59/38 46/61/38 42/60/38
f 47/62/39 44/63/39 46/61/39
f 44/63/40 41/64/40 40/65/40
f 46/61/41 40/66/41 42/67/41
f 47/62/42 41/68/42 45/69/42
f 14/3/43 13/70/43 2/1/43
f 2/1/1 31/45/1 28/2/1
f 18/4/44 10/24/44 8/5/44
f 16/9/45 15/6/45 27/7/45
f 15/6/46 8/5/46 27/7/46
f 7/13/47 5/28/47 11/14/47
f 29/16/6 30/40/6 12/17/6
f 27/7/48 8/5/48 10/18/48
f 10/18/49 12/17/49 27/7/49
f 1/21/50 3/71/50 9/15/50
f 9/15/51 11/14/51 21/20/51
f 23/23/52 16/9/52 25/8/52
f 25/8/53 26/38/53 23/23/53
f 26/38/54 12/22/54 23/23/54
f 18/4/55 14/3/55 10/24/55
f 14/3/10 28/2/10 29/25/10
f 3/26/56 14/3/56 18/4/56
f 5/28/57 7/13/57 24/32/57
f 7/13/58 15/6/58 24/32/58
f 9/27/59 18/4/59 15/6/59
f 1/33/60 13/70/60 14/3/60
f 48/34/61 19/29/61 5/28/61
f 5/28/62 24/32/62 48/34/62
f 21/31/63 19/29/63 49/35/63
f 20/12/64 13/72/64 1/36/64
f 13/72/65 20/12/65 2/37/65
f 20/12/9 22/11/9 12/22/9
f 30/40/26 31/43/26 2/41/26
f 32/46/31 33/73/31 35/47/31
f 34/48/32 35/47/32 39/49/32
f 39/49/33 37/57/33 36/51/33
f 36/51/34 37/57/34 33/52/34
f 34/54/35 38/50/35 36/51/35
f 39/49/36 35/74/36 33/56/36
f 40/58/37 41/75/37 43/59/37
f 43/59/38 47/62/38 46/61/38
f 47/62/39 45/69/39 44/63/39
f 44/63/40 45/69/40 41/64/40
f 46/61/41 44/63/41 40/66/41
f 47/62/42 43/76/42 41/68/42
